<?xml version="1.0" encoding="UTF-8" standalone="no"?>
<!-- Created with Inkscape (http://www.inkscape.org/) -->

<svg
   width="512"
   height="512"
   viewBox="0 0 135.46667 135.46667"
   version="1.1"
   id="svg1"
   inkscape:version="1.3.2 (091e20e, 2023-11-25)"
   sodipodi:docname="break.svg"
   xml:space="preserve"
   xmlns:inkscape="http://www.inkscape.org/namespaces/inkscape"
   xmlns:sodipodi="http://sodipodi.sourceforge.net/DTD/sodipodi-0.dtd"
   xmlns="http://www.w3.org/2000/svg"
   xmlns:svg="http://www.w3.org/2000/svg"><sodipodi:namedview
     id="namedview1"
     pagecolor="#ffffff"
     bordercolor="#000000"
     borderopacity="0.25"
     inkscape:showpageshadow="2"
     inkscape:pageopacity="0.0"
     inkscape:pagecheckerboard="0"
     inkscape:deskcolor="#d1d1d1"
     inkscape:document-units="px"
     inkscape:zoom="0.88576185"
     inkscape:cx="321.19243"
     inkscape:cy="265.87282"
     inkscape:window-width="1440"
     inkscape:window-height="762"
     inkscape:window-x="0"
     inkscape:window-y="25"
     inkscape:window-maximized="0"
     inkscape:current-layer="layer2" /><defs
     id="defs1" /><g
     inkscape:label="Standers"
     inkscape:groupmode="layer"
     id="layer1"
     sodipodi:insensitive="true"
     style="display:none"><rect
       style="fill:#4d4d4d;stroke:#808080;stroke-width:0"
       id="rect1"
       width="1.5875"
       height="135.46666"
       x="15.875"
       y="2.7270507e-06" /><rect
       style="fill:#4d4d4d;stroke:#808080;stroke-width:0"
       id="rect2"
       width="1.5875"
       height="135.46666"
       x="118.00417"
       y="2.7270507e-06" /><rect
       style="fill:#4d4d4d;stroke:#808080;stroke-width:0"
       id="rect3"
       width="1.5875"
       height="135.46666"
       x="-17.4625"
       y="2.7270507e-06"
       transform="rotate(-90)" /><rect
       style="fill:#4d4d4d;stroke:#808080;stroke-width:0"
       id="rect4"
       width="1.5875"
       height="135.46666"
       x="-119.59166"
       y="2.7270507e-06"
       transform="rotate(-90)" /><text
       xml:space="preserve"
       style="font-weight:bold;font-size:2.11667px;line-height:0;font-family:Arial;-inkscape-font-specification:'Arial Bold';letter-spacing:0px;fill:#f9f9f9;stroke:#808080;stroke-width:0"
       x="64.517502"
       y="17.399294"
       id="text4"
       inkscape:label="379PX"><tspan
         sodipodi:role="line"
         id="tspan4"
         style="font-size:2.11667px;letter-spacing:0px;fill:#f9f9f9;stroke-width:0"
         x="64.517502"
         y="17.399294">379PX</tspan></text><text
       xml:space="preserve"
       style="font-weight:bold;font-size:2.11667px;line-height:0;font-family:Arial;-inkscape-font-specification:'Arial Bold';letter-spacing:0px;fill:#f9f9f9;stroke:#808080;stroke-width:0"
       x="-70.949165"
       y="17.440489"
       id="text5"
       inkscape:label="378PX"
       transform="rotate(-90)"><tspan
         sodipodi:role="line"
         id="tspan5"
         style="font-size:2.11667px;letter-spacing:0px;fill:#f9f9f9;stroke-width:0"
         x="-70.949165"
         y="17.440489">378PX</tspan></text><text
       xml:space="preserve"
       style="font-weight:bold;font-size:2.11667px;line-height:0;font-family:Arial;-inkscape-font-specification:'Arial Bold';letter-spacing:0px;fill:#f9f9f9;stroke:#808080;stroke-width:0"
       x="64.517502"
       y="-118.07516"
       id="text6"
       inkscape:label="378PX"
       transform="rotate(90)"><tspan
         sodipodi:role="line"
         id="tspan6"
         style="font-size:2.11667px;letter-spacing:0px;fill:#f9f9f9;stroke-width:0"
         x="64.517502"
         y="-118.07516">378PX</tspan></text><text
       xml:space="preserve"
       style="font-weight:bold;font-size:2.11667px;line-height:0;font-family:Arial;-inkscape-font-specification:'Arial Bold';letter-spacing:0px;fill:#f9f9f9;stroke:#808080;stroke-width:0"
       x="64.517502"
       y="119.52845"
       id="text7"
       inkscape:label="379PX"><tspan
         sodipodi:role="line"
         id="tspan7"
         style="font-size:2.11667px;letter-spacing:0px;fill:#f9f9f9;stroke-width:0"
         x="64.517502"
         y="119.52845">379PX</tspan></text></g><g
     inkscape:groupmode="layer"
     id="layer2"
     inkscape:label="Icon"
     transform="matrix(1,0,0,1.289727,-17.727083,-64.682989)"><g
       id="g9"
       transform="matrix(11.684407,0,0,11.684407,-776.91614,-1033.5761)"
       style="fill:#000000"><path
         style="fill:#000000;stroke:#808080;stroke-width:0"
         d="m 75.658665,96.507875 -5.156755,-0.0082 0.0015,2.615763 c 0,0 0.119254,0.603688 0.267946,0.863454 0.132433,0.231358 0.535895,0.584098 0.535895,0.584098 l 3.431328,-0.0156 c 0,0 0.461653,-0.37014 0.61504,-0.621076 0.170684,-0.279239 0.311804,-0.938663 0.311804,-0.938663 z"
         id="path2"
         sodipodi:nodetypes="cccsccscc" /><path
         style="fill:#000000;stroke:#808080;stroke-width:0"
         d="m 75.664365,98.385564 c 0,0 0.299556,0.0096 0.44857,0 0.09668,-0.0062 0.195327,-0.01267 0.287083,-0.0371 0.05147,-0.0137 0.09964,-0.03535 0.143545,-0.06028 0.06484,-0.03682 0.124488,-0.08043 0.173445,-0.129848 0.05001,-0.05048 0.0899,-0.107603 0.11962,-0.166944 0.03116,-0.06221 0.04903,-0.128556 0.05981,-0.194769 0.01448,-0.08896 0.01978,-0.179937 0.006,-0.268968 -0.01031,-0.06663 -0.02346,-0.136228 -0.06579,-0.194768 -0.03517,-0.04863 -0.08602,-0.09442 -0.149524,-0.120571 -0.09292,-0.03826 -0.206247,-0.03421 -0.311009,-0.04174 -0.146913,-0.01055 -0.442587,-0.0046 -0.442587,-0.0046 H 75.62848 l 0.006,-0.153031 c 0,0 0.495754,-0.0108 0.741635,0.0093 0.11315,0.0093 0.232585,0.01078 0.337776,0.0444 0.106332,0.03398 0.216534,0.08292 0.28424,0.155012 0.07319,0.07792 0.0855,0.182661 0.101677,0.27824 0.01712,0.101167 0.0097,0.204763 -0.006,0.306067 -0.01392,0.08973 -0.036,0.179954 -0.07775,0.264329 -0.04987,0.100787 -0.11035,0.202545 -0.203351,0.282879 -0.07833,0.06767 -0.179888,0.120803 -0.287086,0.15767 -0.134415,0.04623 -0.284462,0.06176 -0.430628,0.0742 -0.14863,0.01265 -0.44857,0 -0.44857,0 z"
         id="path5"
         sodipodi:nodetypes="csssssssssscccssssssssscc" /><text
         xml:space="preserve"
         style="font-weight:bold;font-size:4.97017px;line-height:0;font-family:Arial;-inkscape-font-specification:'Arial Bold';letter-spacing:0px;fill:#000000;stroke:#808080;stroke-width:0"
         x="106.50591"
         y="-61.788078"
         id="text8"
         transform="matrix(0,0.88054408,-1.1356615,0,0,0)"><tspan
           sodipodi:role="line"
           id="tspan8"
           style="fill:#000000;stroke-width:0"
           x="106.50591"
           y="-61.788078">~</tspan></text><text
         xml:space="preserve"
         style="font-weight:bold;font-size:4.97017px;line-height:0;font-family:Arial;-inkscape-font-specification:'Arial Bold';letter-spacing:0px;fill:#000000;stroke:#808080;stroke-width:0"
         x="106.50591"
         y="-63.185928"
         id="text9"
         transform="matrix(0,0.88054408,-1.1356615,0,0,0)"><tspan
           sodipodi:role="line"
           id="tspan9"
           style="fill:#000000;stroke-width:0"
           x="106.50591"
           y="-63.185928">~</tspan></text></g></g></svg>
