<?xml version="1.0" encoding="UTF-8" standalone="no"?>
<!-- Created with Inkscape (http://www.inkscape.org/) -->

<svg
   width="512"
   height="512"
   viewBox="0 0 135.46667 135.46667"
   version="1.1"
   id="svg1"
   inkscape:version="1.3.2 (091e20e, 2023-11-25)"
   sodipodi:docname="drive.svg"
   xml:space="preserve"
   xmlns:inkscape="http://www.inkscape.org/namespaces/inkscape"
   xmlns:sodipodi="http://sodipodi.sourceforge.net/DTD/sodipodi-0.dtd"
   xmlns="http://www.w3.org/2000/svg"
   xmlns:svg="http://www.w3.org/2000/svg"><sodipodi:namedview
     id="namedview1"
     pagecolor="#ffffff"
     bordercolor="#000000"
     borderopacity="0.25"
     inkscape:showpageshadow="2"
     inkscape:pageopacity="0.0"
     inkscape:pagecheckerboard="0"
     inkscape:deskcolor="#d1d1d1"
     inkscape:document-units="px"
     inkscape:zoom="0.74786545"
     inkscape:cx="221.29649"
     inkscape:cy="181.18232"
     inkscape:window-width="1440"
     inkscape:window-height="762"
     inkscape:window-x="0"
     inkscape:window-y="25"
     inkscape:window-maximized="0"
     inkscape:current-layer="layer2" /><defs
     id="defs1" /><g
     inkscape:label="Standers"
     inkscape:groupmode="layer"
     id="layer1"
     sodipodi:insensitive="true"
     style="display:none"><rect
       style="fill:#4d4d4d;stroke:#808080;stroke-width:0"
       id="rect1"
       width="1.5875"
       height="135.46666"
       x="15.875"
       y="2.7270507e-06" /><rect
       style="fill:#4d4d4d;stroke:#808080;stroke-width:0"
       id="rect2"
       width="1.5875"
       height="135.46666"
       x="118.00417"
       y="2.7270507e-06" /><rect
       style="fill:#4d4d4d;stroke:#808080;stroke-width:0"
       id="rect3"
       width="1.5875"
       height="135.46666"
       x="-17.4625"
       y="2.7270507e-06"
       transform="rotate(-90)" /><rect
       style="fill:#4d4d4d;stroke:#808080;stroke-width:0"
       id="rect4"
       width="1.5875"
       height="135.46666"
       x="-119.59166"
       y="2.7270507e-06"
       transform="rotate(-90)" /><text
       xml:space="preserve"
       style="font-weight:bold;font-size:2.11667px;line-height:0;font-family:Arial;-inkscape-font-specification:'Arial Bold';letter-spacing:0px;fill:#f9f9f9;stroke:#808080;stroke-width:0"
       x="64.517502"
       y="17.399294"
       id="text4"
       inkscape:label="379PX"><tspan
         sodipodi:role="line"
         id="tspan4"
         style="font-size:2.11667px;letter-spacing:0px;fill:#f9f9f9;stroke-width:0"
         x="64.517502"
         y="17.399294">379PX</tspan></text><text
       xml:space="preserve"
       style="font-weight:bold;font-size:2.11667px;line-height:0;font-family:Arial;-inkscape-font-specification:'Arial Bold';letter-spacing:0px;fill:#f9f9f9;stroke:#808080;stroke-width:0"
       x="-70.949165"
       y="17.440489"
       id="text5"
       inkscape:label="378PX"
       transform="rotate(-90)"><tspan
         sodipodi:role="line"
         id="tspan5"
         style="font-size:2.11667px;letter-spacing:0px;fill:#f9f9f9;stroke-width:0"
         x="-70.949165"
         y="17.440489">378PX</tspan></text><text
       xml:space="preserve"
       style="font-weight:bold;font-size:2.11667px;line-height:0;font-family:Arial;-inkscape-font-specification:'Arial Bold';letter-spacing:0px;fill:#f9f9f9;stroke:#808080;stroke-width:0"
       x="64.517502"
       y="-118.07516"
       id="text6"
       inkscape:label="378PX"
       transform="rotate(90)"><tspan
         sodipodi:role="line"
         id="tspan6"
         style="font-size:2.11667px;letter-spacing:0px;fill:#f9f9f9;stroke-width:0"
         x="64.517502"
         y="-118.07516">378PX</tspan></text><text
       xml:space="preserve"
       style="font-weight:bold;font-size:2.11667px;line-height:0;font-family:Arial;-inkscape-font-specification:'Arial Bold';letter-spacing:0px;fill:#f9f9f9;stroke:#808080;stroke-width:0"
       x="64.517502"
       y="119.52845"
       id="text7"
       inkscape:label="379PX"><tspan
         sodipodi:role="line"
         id="tspan7"
         style="font-size:2.11667px;letter-spacing:0px;fill:#f9f9f9;stroke-width:0"
         x="64.517502"
         y="119.52845">379PX</tspan></text></g><g
     inkscape:groupmode="layer"
     id="layer2"
     inkscape:label="Icon"
     transform="matrix(1,0,0,1.289727,-17.727083,-64.682989)"><g
       id="g5"
       transform="translate(0.49649766,-5.201128)"><path
         style="fill:#000000;stroke:#808080;stroke-width:0"
         d="m 133.78501,122.0442 -1.17318,-0.0497 0.128,-4.01888 -1.34381,0.0165 -1.06651,-0.95923 -1.81309,-1.35617 -1.62107,-0.76078 -1.38648,-0.29769 -1.66375,-0.0992 -1.3225,0.14886 -1.72773,0.39691 -1.55714,0.67808 -0.95984,0.67807 -1.10919,1.22386 -0.87454,1.43886 -0.66124,2.48079 -1.53577,0.0331 v 3.05965 l -0.2773,-0.0166 0.0213,-1.6704 -1.13051,0.0331 -16.722969,-0.0166 -0.04266,-1.02539 -0.794497,0.0222 -0.04156,0.36514 -0.207756,0.19329 -0.38781,0.23626 -0.623268,0.0323 -2.3609,-0.0128 v 0.19455 l -1.387463,-0.023 0.01475,-0.21742 -10.937361,0.0572 -0.01476,0.206 -1.298903,-0.0113 -0.01477,-0.19457 -2.642088,-0.0114 -0.413286,-0.0457 -0.398526,-0.29755 -0.162364,-0.35479 -0.258125,-1.94291 h -4.0898 l -34.378546,-0.0462 0.330478,-4.71479 8.435762,-0.93601 6.276779,0.0505 1.06995,-0.10524 0.01847,-0.54409 -4.708963,-0.086 0.03694,-0.55841 2.345246,-0.50113 10.581323,-0.11455 0.03694,0.88774 -3.34244,0.25772 v 0.40091 l 8.03294,0.44387 25.630554,-0.0239 0.148883,-2.87438 0.253099,-0.0923 -0.01488,-4.83682 h 0.461536 l 0.148884,8.13833 2.229836,-0.0142 0.04093,-22.663218 -0.01556,-0.617618 -0.393436,-0.699432 -0.851107,-1.067058 0.540448,-0.371917 1.309901,-0.602791 0.582368,0.741147 0.633832,0.94289 0.291102,0.723508 0.06214,1.099544 0.0484,4.482933 4.975577,0.12165 7.17587,0.279299 0.21642,0.119849 0.15457,0.06392 0.56679,-0.02399 1.4118,2.373083 -0.15457,0.08789 -0.3916,0.0078 -0.92746,-0.04794 1.04323,5.191871 8.83593,-0.21764 13.11355,-0.10366 0.41784,0.49261 0.93139,0.0777 0.2058,11.27581 0.24487,0.0136 0.0438,1.36973 0.71711,-0.008 0.62091,-0.008 -0.0525,4.13625 z"
         id="path1"
         sodipodi:nodetypes="ccccccccccccccccccccccccccccccccccccccccccccccccccccccccccccccccccccccccccccccccccccccccccccccc"
         inkscape:label="Truck" /><path
         style="display:none;fill:#000000;stroke:#808080;stroke-width:0"
         d="m 92.688059,114.68333 -0.07596,-8.87573 -0.07031,-12.536485 -0.05207,-0.403714 -1.076071,-1.305339 0.18618,-0.11147 1.158113,-0.716218 0.20039,-0.08739 0.486511,0.593703 0.211049,0.51117 -0.07032,0.557453 0.09169,1.042551 -0.128825,21.369899 z"
         id="path3"
         sodipodi:nodetypes="cccccccccccccc"
         inkscape:label="RightExhustPipe" /><ellipse
         style="fill:#191919;fill-opacity:1;stroke:#808080;stroke-width:0"
         id="path4"
         cx="123.85892"
         cy="120.88443"
         rx="7.4761086"
         ry="5.9920521"
         inkscape:label="FT" /><ellipse
         style="fill:#191919;fill-opacity:1;stroke:#808080;stroke-width:0"
         id="ellipse4"
         cx="59.570004"
         cy="120.88443"
         rx="7.4761086"
         ry="5.9920521"
         inkscape:label="RT1" /><ellipse
         style="fill:#191919;fill-opacity:1;stroke:#808080;stroke-width:0"
         id="ellipse5"
         cx="42.433769"
         cy="120.88443"
         rx="7.4761086"
         ry="5.9920521"
         inkscape:label="RT2" /></g></g></svg>
